<svg width="252" height="87" viewBox="0 0 252 87" fill="none" xmlns="http://www.w3.org/2000/svg">
<g filter="url(#filter0_d)">
<path d="M19.904 46.432C20.96 47.776 22.016 48.8 23.072 49.504C24.16 50.176 25.504 50.512 27.104 50.512C27.872 50.512 28.496 50.48 28.976 50.416C29.488 50.352 29.92 50.256 30.272 50.128C30.624 50 30.928 49.872 31.184 49.744C31.44 49.584 31.696 49.424 31.952 49.264C33.168 48.368 34.336 47.856 35.456 47.728C36.576 47.568 37.632 47.68 38.624 48.064C39.328 48.32 39.952 48.704 40.496 49.216C41.072 49.728 41.552 50.304 41.936 50.944C42.32 51.616 42.592 52.4 42.752 53.296C42.912 54.16 42.944 55.056 42.848 55.984C42.752 56.88 42.496 57.76 42.08 58.624C41.664 59.488 41.072 60.224 40.304 60.832C39.728 61.28 39.056 61.728 38.288 62.176C37.52 62.592 36.608 62.976 35.552 63.328C34.496 63.68 33.28 63.968 31.904 64.192C30.528 64.416 28.928 64.528 27.104 64.528C23.936 64.528 20.96 63.936 18.176 62.752C15.392 61.536 12.944 59.904 10.832 57.856C8.752 55.776 7.104 53.36 5.888 50.608C4.672 47.824 4.064 44.848 4.064 41.68C4.064 38.512 4.672 35.536 5.888 32.752C7.104 29.968 8.752 27.552 10.832 25.504C12.944 23.424 15.392 21.792 18.176 20.608C20.96 19.392 23.936 18.784 27.104 18.784C30.208 18.784 33.12 19.376 35.84 20.56C38.592 21.712 40.976 23.312 42.992 25.36C45.04 27.408 46.656 29.808 47.84 32.56C49.024 35.28 49.648 38.208 49.712 41.344C49.712 42.272 49.552 43.072 49.232 43.744C48.912 44.384 48.448 44.912 47.84 45.328C47.264 45.712 46.576 46 45.776 46.192C44.976 46.352 44.096 46.432 43.136 46.432H19.904ZM35.408 37.648C34.544 36.08 33.456 34.864 32.144 34C30.864 33.136 29.28 32.704 27.392 32.704C25.568 32.704 24.032 33.168 22.784 34.096C21.568 35.024 20.544 36.208 19.712 37.648H35.408ZM96.2638 56.8C96.2638 57.824 96.0718 58.768 95.6878 59.632C95.3038 60.496 94.7918 61.264 94.1518 61.936C93.5118 62.576 92.7438 63.088 91.8478 63.472C90.9518 63.824 90.0078 64 89.0158 64C87.9918 64 87.0158 63.824 86.0878 63.472C85.1918 63.088 84.3918 62.576 83.6878 61.936C83.0158 61.264 82.4718 60.496 82.0558 59.632C81.6398 58.768 81.4318 57.824 81.4318 56.8V38.224C81.3678 36.816 80.9518 35.68 80.1838 34.816C79.4478 33.952 78.3598 33.52 76.9198 33.52C75.6078 33.52 74.4718 33.92 73.5118 34.72C72.5518 35.488 72.0398 36.512 71.9758 37.792V56.656C71.9758 57.68 71.7838 58.64 71.3998 59.536C71.0158 60.4 70.4878 61.168 69.8158 61.84C69.1758 62.512 68.4078 63.04 67.5118 63.424C66.6158 63.808 65.6558 64 64.6318 64C63.6078 64 62.6318 63.808 61.7038 63.424C60.8078 63.04 60.0238 62.512 59.3518 61.84C58.6798 61.168 58.1358 60.4 57.7198 59.536C57.3358 58.64 57.1438 57.68 57.1438 56.656V26.08C57.1438 25.088 57.3358 24.144 57.7198 23.248C58.1358 22.352 58.6798 21.568 59.3518 20.896C60.0558 20.224 60.8558 19.696 61.7518 19.312C62.6798 18.928 63.6718 18.736 64.7278 18.736C65.9438 18.736 67.0478 19.008 68.0398 19.552C69.0318 20.064 69.8478 20.768 70.4878 21.664C71.6718 20.736 72.9518 20.016 74.3278 19.504C75.7038 18.96 77.1758 18.688 78.7438 18.688C81.0798 18.688 83.2078 19.072 85.1278 19.84C87.0478 20.608 88.7438 21.68 90.2158 23.056C92.1678 21.712 94.2798 20.656 96.5518 19.888C98.8238 19.088 101.112 18.688 103.416 18.688C106.136 18.688 108.552 19.2 110.664 20.224C112.808 21.248 114.6 22.64 116.04 24.4C117.512 26.16 118.632 28.224 119.4 30.592C120.168 32.96 120.568 35.472 120.6 38.128V38.416V56.8C120.6 57.824 120.408 58.768 120.024 59.632C119.64 60.496 119.128 61.264 118.488 61.936C117.848 62.576 117.08 63.088 116.184 63.472C115.32 63.824 114.392 64 113.4 64C112.376 64 111.4 63.824 110.472 63.472C109.576 63.088 108.776 62.576 108.072 61.936C107.368 61.264 106.808 60.496 106.392 59.632C106.008 58.768 105.816 57.824 105.816 56.8V38.272C105.752 36.832 105.32 35.68 104.52 34.816C103.752 33.952 102.648 33.52 101.208 33.52C100.568 33.52 99.9438 33.648 99.3358 33.904C98.7278 34.128 98.1998 34.448 97.7518 34.864C97.3038 35.28 96.9358 35.776 96.6478 36.352C96.3918 36.896 96.2638 37.504 96.2638 38.176V38.272V38.56V56.8ZM141.757 41.68C141.757 42.8 141.965 43.84 142.381 44.8C142.829 45.76 143.421 46.608 144.157 47.344C144.893 48.048 145.741 48.608 146.701 49.024C147.661 49.44 148.685 49.648 149.773 49.648C150.861 49.648 151.885 49.44 152.845 49.024C153.837 48.608 154.701 48.048 155.437 47.344C156.173 46.608 156.749 45.76 157.165 44.8C157.581 43.84 157.789 42.8 157.789 41.68C157.789 40.56 157.581 39.52 157.165 38.56C156.749 37.6 156.173 36.768 155.437 36.064C154.701 35.328 153.837 34.752 152.845 34.336C151.885 33.92 150.861 33.712 149.773 33.712C148.685 33.712 147.661 33.92 146.701 34.336C145.741 34.752 144.893 35.328 144.157 36.064C143.421 36.768 142.829 37.6 142.381 38.56C141.965 39.52 141.757 40.56 141.757 41.68ZM126.877 41.68C126.877 38.512 127.485 35.552 128.701 32.8C129.917 30.016 131.565 27.584 133.645 25.504C135.725 23.424 138.141 21.792 140.893 20.608C143.677 19.392 146.637 18.784 149.773 18.784C152.941 18.784 155.901 19.392 158.653 20.608C161.437 21.792 163.853 23.424 165.901 25.504C167.981 27.584 169.613 30.016 170.797 32.8C172.013 35.552 172.621 38.512 172.621 41.68C172.621 44.816 172.013 47.776 170.797 50.56C169.613 53.344 167.981 55.776 165.901 57.856C163.853 59.904 161.437 61.536 158.653 62.752C155.901 63.936 152.941 64.528 149.773 64.528C146.637 64.528 143.677 63.936 140.893 62.752C138.141 61.536 135.725 59.904 133.645 57.856C131.565 55.776 129.917 53.344 128.701 50.56C127.485 47.776 126.877 44.816 126.877 41.68ZM194.416 61.312C194.416 61.632 194.4 61.872 194.368 62.032C194.272 64.208 193.792 66.256 192.928 68.176C192.096 70.096 190.976 71.776 189.568 73.216C188.16 74.656 186.512 75.808 184.624 76.672C182.768 77.536 180.768 78.032 178.624 78.16C178.464 78.192 178.224 78.208 177.904 78.208C176.848 78.208 175.856 78.016 174.928 77.632C174.031 77.248 173.247 76.72 172.575 76.048C171.903 75.376 171.375 74.576 170.991 73.648C170.607 72.752 170.415 71.776 170.415 70.72C170.415 69.728 170.607 68.784 170.991 67.888C171.343 66.992 171.855 66.208 172.527 65.536C173.167 64.864 173.919 64.336 174.784 63.952C175.648 63.536 176.592 63.312 177.616 63.28C178.16 63.28 178.624 63.088 179.008 62.704C179.392 62.32 179.584 61.856 179.584 61.312V26.272C179.584 25.248 179.776 24.288 180.16 23.392C180.576 22.464 181.12 21.664 181.792 20.992C182.496 20.32 183.296 19.792 184.192 19.408C185.088 19.024 186.048 18.832 187.072 18.832C188.096 18.832 189.056 19.024 189.952 19.408C190.848 19.792 191.616 20.32 192.256 20.992C192.928 21.664 193.456 22.464 193.84 23.392C194.224 24.288 194.416 25.248 194.416 26.272V61.312ZM179.248 8.32C179.248 7.264 179.456 6.272 179.872 5.344C180.288 4.384 180.848 3.552 181.552 2.848C182.288 2.144 183.12 1.584 184.048 1.168C185.008 0.751999 186.016 0.543999 187.072 0.543999C188.128 0.543999 189.104 0.751999 190 1.168C190.928 1.584 191.728 2.144 192.4 2.848C193.104 3.552 193.648 4.384 194.032 5.344C194.416 6.272 194.608 7.264 194.608 8.32C194.608 9.376 194.4 10.384 193.984 11.344C193.568 12.272 192.992 13.088 192.256 13.792C191.552 14.496 190.72 15.056 189.76 15.472C188.832 15.888 187.84 16.096 186.784 16.096C185.728 16.096 184.736 15.888 183.808 15.472C182.912 15.056 182.112 14.496 181.408 13.792C180.736 13.088 180.208 12.272 179.824 11.344C179.44 10.384 179.248 9.376 179.248 8.32ZM216.194 41.68C216.194 42.8 216.402 43.84 216.818 44.8C217.266 45.76 217.858 46.608 218.594 47.344C219.33 48.048 220.178 48.608 221.138 49.024C222.098 49.44 223.122 49.648 224.21 49.648C225.298 49.648 226.322 49.44 227.282 49.024C228.274 48.608 229.138 48.048 229.874 47.344C230.61 46.608 231.186 45.76 231.602 44.8C232.018 43.84 232.226 42.8 232.226 41.68C232.226 40.56 232.018 39.52 231.602 38.56C231.186 37.6 230.61 36.768 229.874 36.064C229.138 35.328 228.274 34.752 227.282 34.336C226.322 33.92 225.298 33.712 224.21 33.712C223.122 33.712 222.098 33.92 221.138 34.336C220.178 34.752 219.33 35.328 218.594 36.064C217.858 36.768 217.266 37.6 216.818 38.56C216.402 39.52 216.194 40.56 216.194 41.68ZM201.314 41.68C201.314 38.512 201.922 35.552 203.138 32.8C204.354 30.016 206.002 27.584 208.082 25.504C210.162 23.424 212.578 21.792 215.33 20.608C218.114 19.392 221.074 18.784 224.21 18.784C227.378 18.784 230.338 19.392 233.09 20.608C235.874 21.792 238.29 23.424 240.338 25.504C242.418 27.584 244.05 30.016 245.234 32.8C246.45 35.552 247.058 38.512 247.058 41.68C247.058 44.816 246.45 47.776 245.234 50.56C244.05 53.344 242.418 55.776 240.338 57.856C238.29 59.904 235.874 61.536 233.09 62.752C230.338 63.936 227.378 64.528 224.21 64.528C221.074 64.528 218.114 63.936 215.33 62.752C212.578 61.536 210.162 59.904 208.082 57.856C206.002 55.776 204.354 53.344 203.138 50.56C201.922 47.776 201.314 44.816 201.314 41.68Z" fill="url(#paint0_linear)"/>
</g>
<defs>
<filter id="filter0_d" x="0.064003" y="0.544006" width="250.994" height="85.664" filterUnits="userSpaceOnUse" color-interpolation-filters="sRGB">
<feFlood flood-opacity="0" result="BackgroundImageFix"/>
<feColorMatrix in="SourceAlpha" type="matrix" values="0 0 0 0 0 0 0 0 0 0 0 0 0 0 0 0 0 0 127 0"/>
<feOffset dy="4"/>
<feGaussianBlur stdDeviation="2"/>
<feColorMatrix type="matrix" values="0 0 0 0 0 0 0 0 0 0 0 0 0 0 0 0 0 0 0.4 0"/>
<feBlend mode="normal" in2="BackgroundImageFix" result="effect1_dropShadow"/>
<feBlend mode="normal" in="SourceGraphic" in2="effect1_dropShadow" result="shape"/>
</filter>
<linearGradient id="paint0_linear" x1="255" y1="0" x2="2" y2="73" gradientUnits="userSpaceOnUse">
<stop offset="0.213542" stop-color="#697FFE"/>
<stop offset="0.838542" stop-color="#FB65AA"/>
</linearGradient>
</defs>
</svg>
